<svg width="1389" height="500" xmlns="http://www.w3.org/2000/svg" viewBox="-103.29843749999998 7.099999999999994 706.596875 135.8" style="background: rgba(0, 0, 0, 0);" preserveAspectRatio="xMidYMid"><defs><filter id="editing-extrude-glow"><feFlood flood-color="#887c7c" result="flood-1"></feFlood><feMorphology operator="erode" radius="1" in="SourceAlpha" result="erode"></feMorphology><feComposite operator="in" in="flood-1" in2="erode" result="comp1"></feComposite><feConvolveMatrix order="3,3" divisor="1" in="comp1" result="convolve" kernelMatrix="0 0 0 1 1 1 0 0 0"></feConvolveMatrix><feOffset dx="-3" dy="0" in="convolve" result="extrude"></feOffset><feComposite operator="in" in="flood-1" in2="extrude" result="comp-extrude"></feComposite><feFlood flood-color="#000000" result="flood-2"></feFlood><feComposite operator="in" in="flood-2" in2="SourceAlpha" result="comp2"></feComposite><feMorphology operator="dilate" radius="1" in="comp2" result="dilate"></feMorphology><feOffset dx="-4.5" dy="0" in="dilate" result="offset"></feOffset><feGaussianBlur in="offset" stdDeviation="5.8" result="blur"></feGaussianBlur><feComponentTransfer in="blur" result="shadow"><feFuncA type="linear" slope="0.8" intercept="-0.2"></feFuncA></feComponentTransfer><feMerge><feMergeNode in="shadow"></feMergeNode><feMergeNode in="comp-extrude"></feMergeNode><feMergeNode in="SourceGraphic"></feMergeNode></feMerge></filter></defs><g filter="url(#editing-extrude-glow)"><g transform="translate(-2.400021731853485, 108.6150016784668)"><path d="M31.75-11.24L31.75-11.24L31.75-11.24Q33.14-9.49 33.14-6.10L33.14-6.10L33.14-6.10Q33.14-2.70 30.55-0.62L30.55-0.62L30.55-0.62Q27.96 1.46 23.43 1.46L23.43 1.46L23.43 1.46Q20.80 1.46 16.72 0.88L16.72 0.88L16.72 0.88Q8.69-0.36 6.39-0.36L6.39-0.36L6.39-0.36Q4.09-0.36 3.14-0.26L3.14-0.26L3.14-0.26Q2.19-0.15 0.66 0L0.66 0L9.49-48.18L25.48-48.18L18.18-8.03L18.18-8.03Q19.13-7.88 20.00-7.88L20.00-7.88L21.83-7.88L21.83-7.88Q27.96-7.88 31.75-11.24ZM61.47-3.07L61.47-3.07L61.47-3.07Q57.96 1.46 49.27 1.46L49.27 1.46L49.27 1.46Q44.75 1.46 41.46-1.28L41.46-1.28L41.46-1.28Q38.18-4.01 38.18-7.96L38.18-7.96L38.18-7.96Q38.18-10.15 38.40-11.24L38.40-11.24L43.29-37.23L58.11-38.69L52.78-10.51L52.78-10.51Q52.49-8.91 52.49-7.96L52.49-7.96L52.49-7.96Q52.49-3.72 55.04-3.72L55.04-3.72L55.04-3.72Q57.89-3.72 59.93-7.59L59.93-7.59L59.93-7.59Q60.59-8.83 60.88-10.44L60.88-10.44L66.06-37.23L80.45-38.69L75.04-10.22L75.04-10.22Q74.82-9.13 74.82-7.96L74.82-7.96L74.82-7.96Q74.82-6.79 75.48-5.51L75.48-5.51L75.48-5.51Q76.14-4.23 78.26-3.94L78.26-3.94L78.26-3.94Q77.82-2.19 76.28-1.02L76.28-1.02L76.28-1.02Q73.07 1.46 69.61 1.46L69.61 1.46L69.61 1.46Q66.14 1.46 64.09 0.22L64.09 0.22L64.09 0.22Q62.05-1.02 61.47-3.07ZM119.94-30.37L119.94-30.37L119.94-30.37Q119.94-27.30 117.38-25.40L117.38-25.40L117.38-25.40Q114.83-23.51 110.67-23.51L110.67-23.51L110.67-23.51Q108.92-23.51 107.89-24.02L107.89-24.02L107.89-24.02Q108.70-25.91 108.95-28.29L108.95-28.29L108.95-28.29Q109.21-30.66 109.21-31.32L109.21-31.32L109.21-31.32Q109.21-34.38 107.09-34.38L107.09-34.38L107.09-34.38Q105.63-34.38 103.99-32.56L103.99-32.56L103.99-32.56Q102.35-30.73 100.96-27.89L100.96-27.89L100.96-27.89Q97.89-21.32 97.89-14.67L97.89-14.67L97.89-14.67Q97.89-11.02 99.28-9.38L99.28-9.38L99.28-9.38Q100.67-7.74 103.73-7.74L103.73-7.74L103.73-7.74Q107.97-7.74 111.32-11.24L111.32-11.24L111.32-11.24Q112.27-12.34 112.78-13.58L112.78-13.58L112.78-13.58Q115.56-12.12 115.56-8.10L115.56-8.10L115.56-8.10Q115.56-4.01 111.03-1.31L111.03-1.31L111.03-1.31Q106.36 1.46 98.91 1.46L98.91 1.46L98.91 1.46Q84.10 1.46 84.10-14.23L84.10-14.23L84.10-14.23Q84.10-25.70 90.59-32.27L90.59-32.27L90.59-32.27Q96.87-38.69 108.40-38.69L108.40-38.69L108.40-38.69Q119.94-38.69 119.94-30.37ZM140.74-34.60L140.74-34.60L140.74-34.60Q144.69-38.69 153.01-38.69L153.01-38.69L153.01-38.69Q157.61-38.69 160.13-36.24L160.13-36.24L160.13-36.24Q162.64-33.80 162.64-29.31L162.64-29.31L162.64-29.31Q162.64-24.82 160.13-21.64L160.13-21.64L160.13-21.64Q157.61-18.47 152.93-17.15L152.93-17.15L152.93-17.15Q153.30-15.69 153.81-14.16L153.81-14.16L154.83-11.24L154.83-11.24Q156.22-7.52 157.31-6.20L157.31-6.20L157.31-6.20Q158.41-4.89 159.87-4.45L159.87-4.45L159.87-4.45Q159.07-1.46 156.15 0.15L156.15 0.15L156.15 0.15Q153.81 1.46 150.60 1.46L150.60 1.46L150.60 1.46Q141.18 1.46 139.94-13.07L139.94-13.07L139.94-13.07Q139.72-15.11 139.72-17.15L139.72-17.15L139.72-17.15Q143.37-18.18 145.93-21.61L145.93-21.61L145.93-21.61Q148.48-25.04 148.48-29.05L148.48-29.05L148.48-29.05Q148.48-33.07 145.63-33.07L145.63-33.07L145.63-33.07Q143.59-33.07 141.98-30.81L141.98-30.81L141.98-30.81Q140.38-28.54 139.65-24.67L139.65-24.67L134.83 0L120.08 1.46L130.30-51.10L144.98-52.56L143.30-43.87L143.30-43.87Q142.20-37.74 140.74-34.60ZM189.22-8.25L189.22-8.25L189.22-8.25Q185.42-4.31 178.48-4.31L178.48-4.31L178.48-4.31Q169.80-4.31 167.97-10.66L167.97-10.66L167.97-10.66Q167.39-12.56 167.39-14.67L167.39-14.67L167.39-14.67Q167.39-16.79 167.83-18.98L167.83-18.98L171.26-37.23L186.08-38.69L182.06-17.45L182.06-17.45Q181.92-16.50 181.70-15.48L181.70-15.48L181.70-15.48Q181.48-14.45 181.48-13.40L181.48-13.40L181.48-13.40Q181.48-12.34 181.84-11.64L181.84-11.64L181.84-11.64Q182.21-10.95 182.72-10.51L182.72-10.51L182.72-10.51Q183.59-9.93 185.16-9.93L185.16-9.93L185.16-9.93Q186.73-9.93 188.08-11.83L188.08-11.83L188.08-11.83Q189.43-13.72 190.09-17.01L190.09-17.01L194.11-37.23L208.49-38.69L203.01-10.00L203.01-10.00Q200.31 4.01 194.76 9.56L194.76 9.56L194.76 9.56Q191.92 12.41 188.23 13.54L188.23 13.54L188.23 13.54Q184.54 14.67 179.80 14.67L179.80 14.67L179.80 14.67Q172.13 14.67 167.75 12.26L167.75 12.26L167.75 12.26Q163.37 9.85 163.37 5.84L163.37 5.84L163.37 5.84Q163.37 2.85 165.64 1.13L165.64 1.13L165.64 1.13Q167.90-0.58 171.40-0.58L171.40-0.58L171.40-0.58Q174.47-0.58 176.81 0.73L176.81 0.73L176.81 0.73Q178.19 1.53 178.85 2.55L178.85 2.55L178.85 2.55Q177.17 4.01 177.17 6.42L177.17 6.42L177.17 6.42Q177.17 9.64 180.09 9.64L180.09 9.64L180.09 9.64Q184.91 9.64 187.68-1.46L187.68-1.46L187.68-1.46Q188.49-4.75 189.22-8.25ZM244.33-38.69L244.33-38.69L244.33-38.69Q238.42-38.69 234.11-40.66L234.11-40.66L231.77-28.83L245.86-28.83L245.86-28.83Q245.86-24.97 243.93-22.52L243.93-22.52L243.93-22.52Q241.99-20.07 238.49-20.07L238.49-20.07L238.49-20.07Q234.69-20.07 231.19-21.46L231.19-21.46L231.19-21.46Q230.46-21.75 230.39-21.83L230.39-21.83L226.23 0L210.31 0L219.58-48.18L252.14-48.18L252.14-48.18Q252.14-43.73 250.06-41.21L250.06-41.21L250.06-41.21Q247.98-38.69 244.33-38.69ZM272.58-20.51L272.58-20.51L272.58-20.51Q275.21-25.18 275.21-29.93L275.21-29.93L275.21-29.93Q275.21-33.07 272.95-33.07L272.95-33.07L272.95-33.07Q271.19-33.07 269.37-30.08L269.37-30.08L269.37-30.08Q267.47-27.08 266.89-23.21L266.89-23.21L263.09 0L247.98 1.46L255.43-37.23L267.47-38.69L266.16-31.32L266.16-31.32Q269.73-38.69 277.76-38.69L277.76-38.69L277.76-38.69Q282.00-38.69 284.30-36.50L284.30-36.50L284.30-36.50Q286.60-34.31 286.60-29.82L286.60-29.82L286.60-29.82Q286.60-25.33 283.64-22.48L283.64-22.48L283.64-22.48Q280.68-19.64 275.65-19.64L275.65-19.64L275.65-19.64Q273.46-19.64 272.58-20.51ZM303.68 1.46L303.68 1.46L303.68 1.46Q287.62 1.46 287.62-13.65L287.62-13.65L287.62-13.65Q287.62-24.38 293.53-31.32L293.53-31.32L293.53-31.32Q299.81-38.69 310.69-38.69L310.69-38.69L310.69-38.69Q318.57-38.69 322.59-35.04L322.59-35.04L322.59-35.04Q326.60-31.39 326.60-23.72L326.60-23.72L326.60-23.72Q326.60-12.04 320.32-5.26L320.32-5.26L320.32-5.26Q314.19 1.46 303.68 1.46ZM305.58-30.29L305.58-30.29L305.58-30.29Q304.70-28.32 304.01-25.37L304.01-25.37L304.01-25.37Q303.31-22.41 302.44-17.74L302.44-17.74L302.44-17.74Q301.56-13.07 301.56-7.30L301.56-7.30L301.56-7.30Q301.56-5.40 302.18-4.16L302.18-4.16L302.18-4.16Q302.80-2.92 304.48-2.92L304.48-2.92L304.48-2.92Q306.16-2.92 307.22-3.72L307.22-3.72L307.22-3.72Q308.28-4.53 309.08-6.42L309.08-6.42L309.08-6.42Q310.54-9.78 311.71-16.02L311.71-16.02L311.71-16.02Q312.88-22.26 312.99-24.97L312.99-24.97L312.99-24.97Q313.10-27.67 313.10-29.67L313.10-29.67L313.10-29.67Q313.10-31.68 312.51-33.00L312.51-33.00L312.51-33.00Q311.93-34.31 310.29-34.31L310.29-34.31L310.29-34.31Q308.64-34.31 307.55-33.29L307.55-33.29L307.55-33.29Q306.45-32.27 305.58-30.29ZM336.09-30.51L336.09-30.51L336.09-30.51Q338.57-34.02 342.33-36.35L342.33-36.35L342.33-36.35Q346.09-38.69 350.69-38.69L350.69-38.69L350.69-38.69Q355.29-38.69 357.48-37.23L357.48-37.23L371.79-38.69L366.82-10.66L366.82-10.66Q364.27 3.65 358.87 9.27L358.87 9.27L358.87 9.27Q353.69 14.60 343.61 14.60L343.61 14.60L343.61 14.60Q335.95 14.60 331.57 12.19L331.57 12.19L331.57 12.19Q327.19 9.78 327.19 5.77L327.19 5.77L327.19 5.77Q327.19 2.77 329.45 1.06L329.45 1.06L329.45 1.06Q331.71-0.66 335.22-0.66L335.22-0.66L335.22-0.66Q338.28-0.66 340.62 0.73L340.62 0.73L340.62 0.73Q342.00 1.46 342.66 2.48L342.66 2.48L342.66 2.48Q340.98 3.94 340.98 6.35L340.98 6.35L340.98 6.35Q340.98 9.49 343.90 9.49L343.90 9.49L343.90 9.49Q348.79 9.49 351.57-2.04L351.57-2.04L351.57-2.04Q352.37-5.18 353.03-8.32L353.03-8.32L353.03-8.32Q349.74-4.31 342.30-4.31L342.30-4.31L342.30-4.31Q337.11-4.31 334.12-6.79L334.12-6.79L334.12-6.79Q331.13-9.27 331.13-15.11L331.13-15.11L331.13-15.11Q331.13-18.76 332.37-22.89L332.37-22.89L332.37-22.89Q333.61-27.01 336.09-30.51ZM345.58-14.89L345.58-14.89L345.58-14.89Q345.58-9.93 348.14-9.93L348.14-9.93L348.14-9.93Q349.89-9.93 351.57-11.83L351.57-11.83L351.57-11.83Q352.88-13.36 353.39-15.62L353.39-15.62L357.12-34.38L357.12-34.38Q356.75-34.46 356.39-34.60L356.39-34.60L356.39-34.60Q355.66-34.89 354.71-34.89L354.71-34.89L354.71-34.89Q350.25-34.89 347.63-27.59L347.63-27.59L347.63-27.59Q345.58-21.90 345.58-14.89ZM422.01-30.29L422.01-30.29L422.01-30.29Q422.01 0.80 388.29 0.80L388.29 0.80L388.29 0.80Q382.88 0.80 373.98-0.51L373.98-0.51L382.15-43.65L382.15-43.65Q382.74-46.57 383.10-48.25L383.10-48.25L383.10-48.25Q394.20-49.06 399.13-49.06L399.13-49.06L399.13-49.06Q404.05-49.06 408.58-48.03L408.58-48.03L408.58-48.03Q413.11-47.01 416.10-44.75L416.10-44.75L416.10-44.75Q422.01-40.30 422.01-30.29ZM406.97-33.00L406.97-33.00L406.97-33.00Q406.97-43.87 399.16-43.87L399.16-43.87L398.43-43.87L398.43-43.87Q398.07-43.87 397.70-43.80L397.70-43.80L390.19-4.60L390.19-4.60Q390.48-4.45 390.77-4.45L390.77-4.45L391.35-4.45L391.35-4.45Q394.05-4.45 396.86-6.13L396.86-6.13L396.86-6.13Q399.67-7.81 401.87-11.24L401.87-11.24L401.87-11.24Q406.97-19.20 406.97-33.00ZM455.30-12.34L455.30-12.34L455.30-12.34Q457.13-11.10 457.13-8.36L457.13-8.36L457.13-8.36Q457.13-5.62 455.74-3.87L455.74-3.87L455.74-3.87Q454.35-2.12 452.09-0.95L452.09-0.95L452.09-0.95Q447.42 1.46 442.38 1.46L442.38 1.46L442.38 1.46Q437.34 1.46 434.39 0.36L434.39 0.36L434.39 0.36Q431.43-0.73 429.46-2.77L429.46-2.77L429.46-2.77Q425.59-6.64 425.59-13.72L425.59-13.72L425.59-13.72Q425.59-24.75 431.58-31.46L431.58-31.46L431.58-31.46Q438-38.69 449.17-38.69L449.17-38.69L449.17-38.69Q456.10-38.69 459.54-35.77L459.54-35.77L459.54-35.77Q462.09-33.58 462.09-30.00L462.09-30.00L462.09-30.00Q462.09-17.15 439.90-17.15L439.90-17.15L439.90-17.15Q439.61-15.26 439.61-13.65L439.61-13.65L439.61-13.65Q439.61-10.29 441.10-9.02L441.10-9.02L441.10-9.02Q442.60-7.74 445.37-7.74L445.37-7.74L445.37-7.74Q448.15-7.74 451.10-9.02L451.10-9.02L451.10-9.02Q454.06-10.29 455.30-12.34ZM440.41-20.29L440.41-20.29L440.41-20.29Q445.59-20.29 448.58-23.51L448.58-23.51L448.58-23.51Q451.58-26.57 451.58-31.46L451.58-31.46L451.58-31.46Q451.58-33.14 450.96-34.05L450.96-34.05L450.96-34.05Q450.34-34.97 449.10-34.97L449.10-34.97L449.10-34.97Q447.86-34.97 446.80-34.49L446.80-34.49L446.80-34.49Q445.74-34.02 444.64-32.41L444.64-32.41L444.64-32.41Q441.94-28.76 440.41-20.29ZM491.07-35.99L491.07-35.99L491.07-35.99Q493.48-38.69 497.64-38.69L497.64-38.69L497.64-38.69Q500.20-38.69 502.17-37.30L502.17-37.30L502.17-37.30Q504.14-35.92 504.14-33.32L504.14-33.32L504.14-33.32Q504.14-30.73 503.34-27.96L503.34-27.96L503.34-27.96Q502.53-25.18 501.29-22.34L501.29-22.34L501.29-22.34Q498.81-16.79 495.38-12.19L495.38-12.19L495.38-12.19Q490.56-5.55 485.92-2.04L485.92-2.04L485.92-2.04Q481.29 1.46 476.25 1.46L476.25 1.46L476.25 1.46Q472.16 1.46 469.68 0.51L469.68 0.51L469.68 0.51Q469.24-14.82 468.70-20.29L468.70-20.29L468.70-20.29Q468.15-25.77 467.71-28.76L467.71-28.76L467.71-28.76Q466.98-34.60 464.79-35.99L464.79-35.99L464.79-35.99Q466.47-37.45 468.11-38.07L468.11-38.07L468.11-38.07Q469.75-38.69 473.15-38.69L473.15-38.69L473.15-38.69Q476.54-38.69 478.95-36.03L478.95-36.03L478.95-36.03Q481.36-33.36 481.84-28.65L481.84-28.65L481.84-28.65Q482.31-23.94 482.31-18.25L482.31-18.25L482.31-18.25Q482.31-12.56 481.87-5.69L481.87-5.69L481.87-5.69Q484.14-7.30 486.55-12.19L486.55-12.19L486.55-12.19Q489.83-18.98 491.00-27.16L491.00-27.16L491.00-27.16Q491.36-29.64 491.36-32.27L491.36-32.27L491.36-32.27Q491.36-34.89 491.07-35.99Z" fill="#05CE7C"></path></g></g><style>text {
  font-size: 64px;
  font-family: Arial Black;
  dominant-baseline: central;
  text-anchor: middle;
}</style></svg>